<svg width="24" height="24" viewBox="0 0 24 24" fill="none" xmlns="http://www.w3.org/2000/svg">
<path d="M11.9991 15.1242C10.2788 15.1242 8.87492 13.7203 8.87492 12C8.87492 10.2797 10.2788 8.87577 11.9991 8.87577C13.7195 8.87577 15.1234 10.2797 15.1234 12C15.1234 13.7203 13.7195 15.1242 11.9991 15.1242ZM21.3695 12C21.3695 13.2937 21.3812 14.5758 21.3085 15.8672C21.2359 17.3672 20.8937 18.6984 19.7968 19.7953C18.6976 20.8945 17.3687 21.2344 15.8687 21.307C14.5749 21.3797 13.2929 21.368 12.0015 21.368C10.7077 21.368 9.4257 21.3797 8.13429 21.307C6.63429 21.2344 5.30304 20.8922 4.20617 19.7953C3.10695 18.6961 2.7671 17.3672 2.69445 15.8672C2.62179 14.5734 2.63351 13.2914 2.63351 12C2.63351 10.7086 2.62179 9.42421 2.69445 8.1328C2.7671 6.6328 3.10929 5.30156 4.20617 4.20468C5.30539 3.10546 6.63429 2.76562 8.13429 2.69296C9.42805 2.62031 10.7101 2.63202 12.0015 2.63202C13.2952 2.63202 14.5773 2.62031 15.8687 2.69296C17.3687 2.76562 18.6999 3.10781 19.7968 4.20468C20.896 5.3039 21.2359 6.6328 21.3085 8.1328C21.3835 9.42421 21.3695 10.7062 21.3695 12ZM11.9991 7.19296C9.33898 7.19296 7.19211 9.33984 7.19211 12C7.19211 14.6601 9.33898 16.807 11.9991 16.807C14.6593 16.807 16.8062 14.6601 16.8062 12C16.8062 9.33984 14.6593 7.19296 11.9991 7.19296ZM17.0031 15.8812C16.382 15.8812 15.8804 16.3828 15.8804 17.0039C15.8804 17.625 16.382 18.1266 17.0031 18.1266C17.6241 18.1266 18.1257 17.625 18.1257 17.0039C18.1259 16.8564 18.097 16.7103 18.0406 16.5741C17.9843 16.4378 17.9016 16.3139 17.7973 16.2096C17.693 16.1054 17.5692 16.0227 17.4329 15.9663C17.2966 15.91 17.1505 15.8811 17.0031 15.8812Z" fill="black"/>
</svg>
